<svg width="63" height="63" viewBox="0 0 63 63" fill="none" xmlns="http://www.w3.org/2000/svg">
<path d="M63 31.5C63 14.1057 48.8943 0 31.5 0C14.1057 0 0 14.1057 0 31.5C0 48.8943 14.1057 63 31.5 63C31.6851 63 31.8691 62.9962 32.0537 62.9928V38.4714H25.2861V30.5844H32.0537V24.7805C32.0537 18.0494 36.1628 14.3859 42.1671 14.3859C45.0424 14.3859 47.5139 14.6003 48.2344 14.6959V21.7308H44.094C40.8275 21.7308 40.195 23.2833 40.195 25.5611V30.5844H48.0056L46.9876 38.4714H40.195V61.783C53.3615 58.0084 63 45.8782 63 31.5Z" fill="white"/>
</svg>
