<svg width="63" height="63" viewBox="0 0 63 63" fill="none" xmlns="http://www.w3.org/2000/svg">
<path d="M53.7715 0H9.22852C4.14034 0 0 4.14034 0 9.22852V53.7715C0 58.8597 4.14034 63 9.22852 63H53.7715C58.8597 63 63 58.8597 63 53.7715V9.22852C63 4.14034 58.8597 0 53.7715 0ZM31.623 47.9883C22.4633 47.9883 15.0117 40.5367 15.0117 31.377C15.0117 22.2172 22.4633 14.7656 31.623 14.7656C40.7828 14.7656 48.2344 22.2172 48.2344 31.377C48.2344 40.5367 40.7828 47.9883 31.623 47.9883ZM50.0801 18.457C47.027 18.457 44.543 15.973 44.543 12.9199C44.543 9.86682 47.027 7.38281 50.0801 7.38281C53.1332 7.38281 55.6172 9.86682 55.6172 12.9199C55.6172 15.973 53.1332 18.457 50.0801 18.457Z" fill="white"/>
<path d="M50.0801 11.0742C49.0616 11.0742 48.2344 11.9014 48.2344 12.9199C48.2344 13.9384 49.0616 14.7656 50.0801 14.7656C51.0986 14.7656 51.9258 13.9384 51.9258 12.9199C51.9258 11.9014 51.0986 11.0742 50.0801 11.0742Z" fill="white"/>
<path d="M31.623 18.457C24.4998 18.457 18.7031 24.2537 18.7031 31.377C18.7031 38.5002 24.4998 44.2969 31.623 44.2969C38.7463 44.2969 44.543 38.5002 44.543 31.377C44.543 24.2537 38.7463 18.457 31.623 18.457Z" fill="white"/>
</svg>
