<svg width="90" height="76" viewBox="0 0 90 76" fill="none" xmlns="http://www.w3.org/2000/svg">
<ellipse cx="39" cy="38" rx="38.7917" ry="38" fill="#F2DD1B"/>
<ellipse cx="57.6458" cy="43" rx="31.6458" ry="31" fill="white"/>
<path d="M18.376 26.496L19.592 26.432C19.8907 26.432 20.04 26.5173 20.04 26.688C20.04 27.1147 19.528 27.328 18.504 27.328C15.9013 27.328 13.128 26.4747 10.184 24.768C7.24 23.0613 5.768 21.2693 5.768 19.392C5.768 16.9173 7.00533 15.68 9.48 15.68C10.0773 15.68 10.7387 15.744 11.464 15.872C25.928 19.584 36.2533 21.44 42.44 21.44C46.2373 21.44 48.136 20.608 48.136 18.944C48.136 17.792 46.9413 16.832 44.552 16.064L41.096 14.72C41.096 14.5067 41.3733 14.4 41.928 14.4C43.592 14.4 45.3627 15.1467 47.24 16.64C49.1173 18.0907 50.056 19.5413 50.056 20.992C50.056 22.656 48.4347 23.488 45.192 23.488H44.936C40.5413 23.3173 36.8933 22.9333 33.992 22.336C25.8 20.672 21.1493 19.7333 20.04 19.52C18.9307 19.264 18.0347 19.072 17.352 18.944C16.712 18.816 15.8587 18.6667 14.792 18.496C12.9147 18.1973 11.144 18.048 9.48 18.048C7.816 18.048 6.984 18.496 6.984 19.392C6.984 20.9707 8.41333 22.5493 11.272 24.128C14.1733 25.7067 16.5413 26.496 18.376 26.496ZM36.68 24.064C36.68 24.192 36.5733 24.4693 36.36 24.896L32.328 28.928C25.032 37.0773 21.384 44.288 21.384 50.56C21.384 51.7547 22.0027 52.352 23.24 52.352C24.0933 52.352 25.1173 52.0533 26.312 51.456L27.912 50.56C28.0827 50.56 28.168 50.6027 28.168 50.688C28.168 51.2 27.4853 51.712 26.12 52.224C24.7547 52.7787 23.8373 53.056 23.368 53.056C22.216 53.056 21.32 52.6507 20.68 51.84C20.04 51.072 19.72 49.856 19.72 48.192C19.72 46.5707 20.5733 43.712 22.28 39.616C24.0293 35.52 26.1627 31.744 28.68 28.288C31.24 24.832 33.416 23.104 35.208 23.104C36.1893 23.104 36.68 23.424 36.68 24.064Z" fill="black"/>
<path d="M77.6853 36.784C77.6853 39.216 76.9813 41.6693 75.5733 44.144C74.2079 46.6187 72.3093 48.8587 69.8773 50.864C67.4879 52.8693 64.4586 54.4907 60.7893 55.728C57.1626 57.008 53.2799 57.648 49.1413 57.648C45.0453 57.648 42.9973 57.3067 42.9973 56.624C42.9973 56.24 43.3173 56.048 43.9573 56.048H44.9813C45.2799 56.0907 45.6639 56.112 46.1333 56.112C50.3573 56.112 54.3679 55.4507 58.1653 54.128C61.9626 52.8053 65.0773 51.1413 67.5093 49.136C69.9839 47.088 71.9253 44.912 73.3333 42.608C74.7839 40.2613 75.5093 38.0427 75.5093 35.952C75.5093 32.6667 74.2079 30.064 71.6053 28.144C69.0026 26.1813 65.6533 25.2 61.5573 25.2H61.1093C55.2639 25.328 47.0506 27.3333 36.4693 31.216C35.5733 31.216 35.1253 30.5547 35.1253 29.232C35.1253 28.8053 35.3173 28.5067 35.7013 28.336C36.0853 28.1227 37.3226 27.7173 39.4133 27.12C47.0506 24.816 54.0479 23.664 60.4053 23.664C65.4399 23.664 69.5786 24.8587 72.8213 27.248C76.0639 29.6373 77.6853 32.816 77.6853 36.784ZM41.7173 60.528L41.5893 60.592C40.9066 60.592 40.3519 60.1867 39.9253 59.376C39.4986 58.608 39.2853 57.4773 39.2853 55.984C39.2853 50.6933 42.2719 42.8 48.2453 32.304C48.2453 32.1333 48.4586 31.6853 48.8853 30.96C49.3546 30.192 49.7386 29.552 50.0373 29.04C50.6346 27.9733 51.1466 27.44 51.5733 27.44C52.0426 27.44 52.5759 27.568 53.1733 27.824C53.7706 28.0373 54.0693 28.272 54.0693 28.528C52.9599 30.448 51.8079 32.3253 50.6133 34.16C44.0853 45.4667 40.8213 53.1893 40.8213 57.328C40.8213 57.7973 40.9706 58.416 41.2693 59.184C41.5679 59.952 41.7173 60.4 41.7173 60.528Z" fill="black"/>
</svg>
