<svg width="68" height="71" viewBox="0 0 68 71" fill="none" xmlns="http://www.w3.org/2000/svg">
<g clip-path="url(#clip0)">
<path d="M22.0469 45.9009H58.0396C58.9309 45.9009 59.7127 45.2856 59.9539 44.3918L67.9232 15.2702C68.0944 14.6423 67.9772 13.9679 67.6 13.4463C67.2223 12.9263 66.635 12.6191 66.0083 12.6191H17.4477L16.0236 5.92822C15.8213 4.9754 15.012 4.29883 14.0781 4.29883H1.99219C0.891297 4.29883 0 5.22945 0 6.37891C0 7.52891 0.891297 8.45898 1.99219 8.45898H12.4792L19.6734 42.2603C17.5567 43.2212 16.0703 45.421 16.0703 47.981C16.0703 51.4218 18.7515 54.2212 22.0469 54.2212H58.0396C59.141 54.2212 60.0318 53.2912 60.0318 52.1412C60.0318 50.9917 59.141 50.0611 58.0396 50.0611H22.0469C20.9496 50.0611 20.0547 49.1288 20.0547 47.981C20.0547 46.8332 20.9496 45.9009 22.0469 45.9009Z" fill="white"/>
<path d="M20.0547 60.4615C20.0547 63.9028 22.7358 66.7017 26.0318 66.7017C29.3272 66.7017 32.0083 63.9028 32.0083 60.4615C32.0083 57.0207 29.3272 54.2212 26.0318 54.2212C22.7358 54.2212 20.0547 57.0207 20.0547 60.4615Z" fill="white"/>
<path d="M48.0786 60.4615C48.0786 63.9028 50.7598 66.7017 54.0552 66.7017C57.3511 66.7017 60.0317 63.9028 60.0317 60.4615C60.0317 57.0207 57.3511 54.2212 54.0552 54.2212C50.7598 54.2212 48.0786 57.0207 48.0786 60.4615Z" fill="white"/>
</g>
<defs>
<clipPath id="clip0">
<rect width="68" height="71" fill="white"/>
</clipPath>
</defs>
</svg>
