<svg width="78" height="63" viewBox="0 0 78 63" fill="none" xmlns="http://www.w3.org/2000/svg">
<path d="M77.0769 7.41384C74.2106 8.67115 71.1564 9.50455 67.9722 9.9092C71.248 7.95337 73.7482 4.87993 74.9236 1.17542C71.8694 2.99637 68.4973 4.28259 64.9036 5.00037C62.0036 1.91247 57.8703 0 53.3613 0C44.6131 0 37.5702 7.10071 37.5702 15.8056C37.5702 17.0581 37.6762 18.2624 37.9363 19.4089C24.7995 18.7682 13.1753 12.472 5.36648 2.88075C4.00318 5.24605 3.20351 7.95337 3.20351 10.8678C3.20351 16.3403 6.02163 21.1913 10.2223 23.9998C7.68361 23.9517 5.19306 23.2146 3.08308 22.0536C3.08308 22.1018 3.08308 22.1644 3.08308 22.2271C3.08308 29.9058 8.56035 36.284 15.743 37.7532C14.4567 38.1049 13.0549 38.2735 11.6001 38.2735C10.5884 38.2735 9.56717 38.2157 8.60853 38.0037C10.6559 44.2614 16.4656 48.8619 23.3736 49.0113C17.9975 53.2168 11.1713 55.7507 3.78159 55.7507C2.48573 55.7507 1.24287 55.6929 0 55.5339C6.99955 60.0477 15.295 62.625 24.2407 62.625C53.318 62.625 69.2151 38.5385 69.2151 17.6602C69.2151 16.9617 69.191 16.2873 69.1573 15.6177C72.2933 13.3921 74.9284 10.6125 77.0769 7.41384Z" fill="white"/>
</svg>
